<svg width="28" height="28" fill="none" xmlns="http://www.w3.org/2000/svg"><path fill-rule="evenodd" clip-rule="evenodd" d="M14.38 2.578a.962.962 0 01.686-.244c5.332.16 9.79 4.031 10.597 9.205a.286.286 0 010 .094.912.912 0 01-.23.67.947.947 0 01-.647.314l-8.96.591a1.07 1.07 0 01-.809-.268 1.027 1.027 0 01-.342-.768l-.602-8.801v-.145a.926.926 0 01.308-.648zm-.614 12.931l7.766-.497.053.02c.333.006.65.141.883.376.231.236.358.552.353.879-.306 4.459-3.575 8.185-8.024 9.144-4.45.96-9.01-1.076-11.195-4.998a9.583 9.583 0 01-1.193-3.66 6.948 6.948 0 01-.074-1.15c.014-4.741 3.39-8.834 8.114-9.837a1.285 1.285 0 011.394.695c.063.093.112.194.148.3.089 1.367.18 2.721.272 4.07.072 1.064.144 2.125.214 3.186-.003.25.036.5.117.736.19.467.661.763 1.172.736z" fill="#75578E"/></svg>